<?xml version="1.0" encoding="UTF-8" standalone="no"?>
<!-- Created with Inkscape (http://www.inkscape.org/) -->

<svg
   xmlns:dc="http://purl.org/dc/elements/1.1/"
   xmlns:cc="http://creativecommons.org/ns#"
   xmlns:rdf="http://www.w3.org/1999/02/22-rdf-syntax-ns#"
   xmlns:svg="http://www.w3.org/2000/svg"
   xmlns="http://www.w3.org/2000/svg"
   xmlns:sodipodi="http://sodipodi.sourceforge.net/DTD/sodipodi-0.dtd"
   xmlns:inkscape="http://www.inkscape.org/namespaces/inkscape"
   width="1280"
   height="1080"
   viewBox="0 0 338.66668 285.75"
   version="1.1"
   id="svg8"
   inkscape:version="0.92.4 5da689c313, 2019-01-14"
   sodipodi:docname="charakterystyki.svg"
   inkscape:export-filename="/home/jakub/Documents/4sem/a4/tex/charakterystyki.png"
   inkscape:export-xdpi="180"
   inkscape:export-ydpi="180">
  <defs
     id="defs2">
    <marker
       inkscape:isstock="true"
       style="overflow:visible;"
       id="marker1878"
       refX="0.0"
       refY="0.0"
       orient="auto"
       inkscape:stockid="Arrow1Lend">
      <path
         transform="scale(0.8) rotate(180) translate(12.5,0)"
         style="fill-rule:evenodd;stroke:#000000;stroke-width:1pt;stroke-opacity:1;fill:#000000;fill-opacity:1"
         d="M 0.0,0.0 L 5.0,-5.0 L -12.5,0.0 L 5.0,5.0 L 0.0,0.0 z "
         id="path1876" />
    </marker>
    <inkscape:path-effect
       effect="bspline"
       id="path-effect1866"
       is_visible="true"
       weight="33.333333"
       steps="2"
       helper_size="0"
       apply_no_weight="true"
       apply_with_weight="true"
       only_selected="false" />
    <marker
       inkscape:stockid="Arrow1Lstart"
       orient="auto"
       refY="0.0"
       refX="0.0"
       id="Arrow1Lstart"
       style="overflow:visible"
       inkscape:isstock="true">
      <path
         id="path1405"
         d="M 0.0,0.0 L 5.0,-5.0 L -12.5,0.0 L 5.0,5.0 L 0.0,0.0 z "
         style="fill-rule:evenodd;stroke:#000000;stroke-width:1pt;stroke-opacity:1;fill:#000000;fill-opacity:1"
         transform="scale(0.8) translate(12.5,0)" />
    </marker>
    <marker
       inkscape:stockid="Arrow1Lend"
       orient="auto"
       refY="0"
       refX="0"
       id="marker3200"
       style="overflow:visible"
       inkscape:isstock="true">
      <path
         inkscape:connector-curvature="0"
         id="path3198"
         d="M 0,0 5,-5 -12.5,0 5,5 Z"
         style="fill:#000000;fill-opacity:1;fill-rule:evenodd;stroke:#000000;stroke-width:1.00000003pt;stroke-opacity:1"
         transform="matrix(-0.8,0,0,-0.8,-10,0)" />
    </marker>
    <marker
       inkscape:stockid="Arrow1Lstart"
       orient="auto"
       refY="0"
       refX="0"
       id="Arrow1Lstart-9"
       style="overflow:visible"
       inkscape:isstock="true">
      <path
         inkscape:connector-curvature="0"
         id="path1405-2"
         d="M 0,0 5,-5 -12.5,0 5,5 Z"
         style="fill:#000000;fill-opacity:1;fill-rule:evenodd;stroke:#000000;stroke-width:1.00000003pt;stroke-opacity:1"
         transform="matrix(0.8,0,0,0.8,10,0)" />
    </marker>
    <inkscape:path-effect
       effect="bspline"
       id="path-effect1918"
       is_visible="true"
       weight="33.333333"
       steps="2"
       helper_size="0"
       apply_no_weight="true"
       apply_with_weight="true"
       only_selected="false" />
    <inkscape:path-effect
       effect="bspline"
       id="path-effect1922"
       is_visible="true"
       weight="33.333333"
       steps="2"
       helper_size="0"
       apply_no_weight="true"
       apply_with_weight="true"
       only_selected="false" />
    <inkscape:path-effect
       effect="bspline"
       id="path-effect1926"
       is_visible="true"
       weight="33.333333"
       steps="2"
       helper_size="0"
       apply_no_weight="true"
       apply_with_weight="true"
       only_selected="false" />
    <inkscape:path-effect
       effect="bspline"
       id="path-effect1930"
       is_visible="true"
       weight="33.333333"
       steps="2"
       helper_size="0"
       apply_no_weight="true"
       apply_with_weight="true"
       only_selected="false" />
  </defs>
  <sodipodi:namedview
     id="base"
     pagecolor="#ffffff"
     bordercolor="#666666"
     borderopacity="1.0"
     inkscape:pageopacity="0.0"
     inkscape:pageshadow="2"
     inkscape:zoom="0.59"
     inkscape:cx="806.26887"
     inkscape:cy="635.49913"
     inkscape:document-units="mm"
     inkscape:current-layer="layer1"
     showgrid="true"
     showguides="true"
     showborder="true"
     borderlayer="true"
     inkscape:showpageshadow="false"
     inkscape:pagecheckerboard="false"
     objecttolerance="10"
     inkscape:snap-path-clip="true"
     inkscape:snap-path-mask="true"
     gridtolerance="10"
     units="px">
    <inkscape:grid
       type="xygrid"
       id="grid10" />
  </sodipodi:namedview>
  <metadata
     id="metadata5">
    <rdf:RDF>
      <cc:Work
         rdf:about="">
        <dc:format>image/svg+xml</dc:format>
        <dc:type
           rdf:resource="http://purl.org/dc/dcmitype/StillImage" />
        <dc:title />
      </cc:Work>
    </rdf:RDF>
  </metadata>
  <g
     inkscape:label="Layer 1"
     inkscape:groupmode="layer"
     id="layer1"
     transform="translate(0,-11.25001)">
    <path
       style="opacity:1;vector-effect:none;fill:none;fill-opacity:1;stroke:#000000;stroke-width:0.89999992;stroke-linecap:butt;stroke-linejoin:miter;stroke-miterlimit:4;stroke-dasharray:none;stroke-dashoffset:0;stroke-opacity:1;marker-end:url(#marker1878)"
       d="M 31.75,233.50001 H 306.91666"
       id="path39"
       inkscape:connector-curvature="0" />
    <path
       style="opacity:1;vector-effect:none;fill:none;fill-opacity:1;stroke:#000000;stroke-width:0.9;stroke-linecap:butt;stroke-linejoin:miter;stroke-miterlimit:4;stroke-dasharray:none;stroke-dashoffset:0;stroke-opacity:1;marker-start:url(#Arrow1Lstart)"
       d="M 164.04166,27.12501 V 244.08334"
       id="path41"
       inkscape:connector-curvature="0" />
    <path
       style="opacity:1;vector-effect:none;fill:none;fill-opacity:1;stroke:#ff7900;stroke-width:0.89999992;stroke-linecap:butt;stroke-linejoin:miter;stroke-miterlimit:4;stroke-dasharray:none;stroke-dashoffset:0;stroke-opacity:1"
       d="M 42.333333,233.50001 216.95833,53.583343"
       id="path1101"
       inkscape:connector-curvature="0"
       sodipodi:nodetypes="cc" />
    <path
       inkscape:connector-curvature="0"
       id="path1103"
       d="M 63.5,233.50001 238.125,53.583343"
       style="opacity:1;vector-effect:none;fill:none;fill-opacity:1;stroke:#ff7900;stroke-width:0.89999992;stroke-linecap:butt;stroke-linejoin:miter;stroke-miterlimit:4;stroke-dasharray:none;stroke-dashoffset:0;stroke-opacity:1"
       sodipodi:nodetypes="cc" />
    <path
       style="opacity:1;vector-effect:none;fill:none;fill-opacity:1;stroke:#ff7900;stroke-width:0.89999992;stroke-linecap:butt;stroke-linejoin:miter;stroke-miterlimit:4;stroke-dasharray:none;stroke-dashoffset:0;stroke-opacity:1"
       d="M 137.58333,233.50001 285.75,80.041677"
       id="path1105"
       inkscape:connector-curvature="0"
       sodipodi:nodetypes="cc" />
    <path
       inkscape:connector-curvature="0"
       id="path1107"
       d="M 89.95833,233.50001 259.29167,53.583343"
       style="opacity:1;vector-effect:none;fill:none;fill-opacity:1;stroke:#ff7900;stroke-width:0.89999992;stroke-linecap:butt;stroke-linejoin:miter;stroke-miterlimit:4;stroke-dasharray:none;stroke-dashoffset:0;stroke-opacity:1"
       sodipodi:nodetypes="cc" />
    <path
       inkscape:connector-curvature="0"
       id="path1109"
       d="M 116.41667,233.50001 285.75,53.583343"
       style="opacity:1;vector-effect:none;fill:none;fill-opacity:1;stroke:#ff7900;stroke-width:0.89999992;stroke-linecap:butt;stroke-linejoin:miter;stroke-miterlimit:4;stroke-dasharray:none;stroke-dashoffset:0;stroke-opacity:1"
       sodipodi:nodetypes="cc" />
    <path
       style="opacity:1;vector-effect:none;fill:#3465a4;fill-opacity:1;stroke:#ff7900;stroke-width:0.89999992;stroke-linecap:butt;stroke-linejoin:miter;stroke-miterlimit:4;stroke-dasharray:none;stroke-dashoffset:0;stroke-opacity:1"
       d="M 164.04167,233.50001 285.75,111.79168"
       id="path1111"
       inkscape:connector-curvature="0"
       sodipodi:nodetypes="cc" />
    <path
       style="opacity:1;vector-effect:none;fill:none;fill-opacity:1;stroke:#000000;stroke-width:0.89999992;stroke-linecap:butt;stroke-linejoin:miter;stroke-miterlimit:4;stroke-dasharray:none;stroke-dashoffset:0;stroke-opacity:1"
       d="m 195.79166,238.79168 0,-185.208337"
       id="path1113"
       inkscape:connector-curvature="0"
       sodipodi:nodetypes="cc" />
    <path
       inkscape:connector-curvature="0"
       id="path1115"
       d="M 259.29167,233.50001 V 53.583343"
       style="opacity:1;vector-effect:none;fill:none;fill-opacity:1;stroke:#000000;stroke-width:0.89999992;stroke-linecap:butt;stroke-linejoin:miter;stroke-miterlimit:4;stroke-dasharray:none;stroke-dashoffset:0;stroke-opacity:1" />
    <path
       style="opacity:1;vector-effect:none;fill:none;fill-opacity:1;stroke:#000000;stroke-width:0.89999992;stroke-linecap:butt;stroke-linejoin:miter;stroke-miterlimit:4;stroke-dasharray:none;stroke-dashoffset:0;stroke-opacity:1"
       d="M 238.125,233.50001 V 53.583343"
       id="path1117"
       inkscape:connector-curvature="0" />
    <path
       inkscape:connector-curvature="0"
       id="path1119"
       d="M 216.95833,233.50001 V 53.583343"
       style="opacity:1;vector-effect:none;fill:none;fill-opacity:1;stroke:#000000;stroke-width:0.89999992;stroke-linecap:butt;stroke-linejoin:miter;stroke-miterlimit:4;stroke-dasharray:none;stroke-dashoffset:0;stroke-opacity:1" />
    <path
       style="opacity:1;vector-effect:none;fill:#729fcf;fill-opacity:1;stroke:#003afb;stroke-width:0.2;stroke-linecap:butt;stroke-linejoin:miter;stroke-miterlimit:4;stroke-dasharray:none;stroke-dashoffset:0;stroke-opacity:1"
       d="m 173.30208,233.50001 51.59375,-72.76042"
       id="path1121"
       inkscape:connector-curvature="0" />
    <path
       style="opacity:1;vector-effect:none;fill:none;fill-opacity:1;stroke:#003afb;stroke-width:0.2;stroke-linecap:butt;stroke-linejoin:miter;stroke-miterlimit:4;stroke-dasharray:none;stroke-dashoffset:0;stroke-opacity:1"
       d="m 183.88541,233.50001 27.78125,-75.40625"
       id="path1123"
       inkscape:connector-curvature="0" />
    <path
       style="opacity:1;vector-effect:none;fill:none;fill-opacity:1;stroke:#003afb;stroke-width:0.2;stroke-linecap:butt;stroke-linejoin:miter;stroke-miterlimit:4;stroke-dasharray:none;stroke-dashoffset:0;stroke-opacity:1"
       d="m 191.82291,233.50001 9.26042,-75.40625"
       id="path1125"
       inkscape:connector-curvature="0" />
    <g
       id="g1168"
       transform="rotate(-45.091796,197.21888,139.16907)"
       style="stroke:none;stroke-opacity:1;fill:#ff7f00;fill-opacity:1">
      <g
         word-spacing="normal"
         letter-spacing="normal"
         font-size-adjust="none"
         font-stretch="normal"
         font-weight="normal"
         font-variant="normal"
         font-style="normal"
         stroke-miterlimit="10.433"
         xml:space="preserve"
         transform="matrix(0.40821429,0,0,-0.40821429,-71.4375,254)"
         id="content"
         style="font-style:normal;font-variant:normal;font-weight:normal;font-stretch:normal;letter-spacing:normal;word-spacing:normal;text-anchor:start;fill:#ff7f00;fill-opacity:1;fill-rule:evenodd;stroke:none;stroke-linecap:butt;stroke-linejoin:miter;stroke-miterlimit:10.43299961;stroke-dasharray:none;stroke-dashoffset:0;stroke-opacity:1"><path
           id="path1159"
           d="m 487.16,435 0.1,0.37 0.05,0.19 0.06,0.18 0.06,0.17 0.07,0.17 0.07,0.17 0.08,0.16 0.08,0.16 0.1,0.16 0.09,0.15 0.11,0.14 0.11,0.14 0.13,0.14 0.13,0.12 0.14,0.13 0.15,0.12 0.17,0.11 0.17,0.11 0.19,0.1 0.19,0.09 0.21,0.09 0.23,0.08 0.23,0.08 0.26,0.07 0.26,0.06 0.28,0.06 0.3,0.04 0.31,0.05 0.33,0.03 0.35,0.03 0.18,0.01 h 0.19 c 0.25,0 0.84,0.05 0.84,1 0,0.05 0,0.55 -0.64,0.55 -1.64,0 -3.39,-0.16 -5.08,-0.16 -1.7,0 -3.55,0.16 -5.19,0.16 -0.29,0 -0.89,0 -0.89,-1 0,-0.55 0.5,-0.55 0.89,-0.55 2.85,-0.04 3.39,-1.09 3.39,-2.18 0,-0.16 -0.11,-0.91 -0.15,-1.05 l -4.49,-17.8 c -1.68,-6.67 -7.42,-11 -12.4,-11 -3.38,0 -6.08,2.19 -6.08,6.47 0,0.11 0,1.7 0.55,3.89 l 4.84,19.38 c 0.44,1.79 0.55,2.29 4.19,2.29 1.28,0 1.68,0 1.68,1 0,0.55 -0.54,0.55 -0.7,0.55 -1.39,0 -4.98,-0.16 -6.37,-0.16 -1.44,0 -4.99,0.16 -6.43,0.16 -0.4,0 -0.95,0 -0.95,-1 0,-0.55 0.45,-0.55 1.41,-0.55 0.09,0 1.04,0 1.89,-0.09 0.89,-0.11 1.34,-0.16 1.34,-0.8 0,-0.31 -0.55,-2.39 -0.84,-3.54 l -1.11,-4.38 c -0.44,-1.95 -2.83,-11.36 -3.03,-12.31 -0.35,-1.39 -0.35,-2.14 -0.35,-2.89 0,-6.08 4.53,-9.56 9.77,-9.56 6.26,0 12.45,5.62 14.09,12.2 z"
           inkscape:connector-curvature="0"
           style="fill:#ff7f00;stroke-width:0;stroke:none;stroke-opacity:1;fill-opacity:1" /><path
           id="path1161"
           d="m 543.03,422.5 h 0.14 0.14 0.15 l 0.07,0.01 h 0.07 l 0.08,0.01 0.07,0.01 0.07,0.01 0.07,0.01 0.07,0.01 0.06,0.02 0.07,0.02 0.06,0.02 0.06,0.02 0.06,0.03 0.06,0.03 0.05,0.04 0.05,0.03 0.05,0.05 0.04,0.04 0.04,0.05 0.02,0.03 0.01,0.03 0.02,0.02 0.02,0.03 0.01,0.03 0.01,0.04 0.02,0.03 0.01,0.04 0.01,0.03 v 0.04 l 0.01,0.04 0.01,0.04 v 0.04 l 0.01,0.04 v 0.04 0.05 c 0,1 -0.95,1 -1.64,1 h -29.85 c -0.7,0 -1.64,0 -1.64,-1 0,-0.98 0.94,-0.98 1.69,-0.98 z"
           inkscape:connector-curvature="0"
           style="fill:#ff7f00;stroke-width:0;stroke:none;stroke-opacity:1;fill-opacity:1" /><path
           id="path1163"
           d="m 543.08,412.82 h 0.06 0.07 l 0.14,0.01 h 0.13 0.07 l 0.07,0.01 0.07,0.01 h 0.07 l 0.07,0.01 0.07,0.02 0.07,0.01 0.06,0.02 0.06,0.02 0.07,0.02 0.06,0.02 0.05,0.03 0.06,0.03 0.05,0.04 0.05,0.04 0.05,0.04 0.04,0.05 0.02,0.02 0.02,0.03 0.02,0.02 0.01,0.03 0.02,0.03 0.02,0.03 0.01,0.03 0.01,0.03 0.02,0.04 0.01,0.03 0.01,0.04 v 0.04 l 0.01,0.04 0.01,0.04 v 0.04 l 0.01,0.04 v 0.05 0.04 c 0,1 -0.95,1 -1.69,1 h -29.75 c -0.75,0 -1.69,0 -1.69,-1 0,-1 0.94,-1 1.64,-1 z"
           inkscape:connector-curvature="0"
           style="fill:#ff7f00;stroke-width:0;stroke:none;stroke-opacity:1;fill-opacity:1" /><path
           id="path1165"
           d="m 576.12,438.09 v 0.05 0.06 0.05 0.05 0.05 0.05 0.04 l -0.01,0.05 v 0.04 0.04 0.04 0.04 0.04 0.03 l -0.01,0.04 v 0.03 l -0.01,0.07 -0.01,0.06 -0.01,0.05 -0.01,0.05 -0.02,0.05 -0.02,0.04 -0.02,0.04 -0.03,0.03 -0.02,0.03 -0.04,0.03 -0.03,0.03 -0.04,0.02 -0.05,0.02 -0.02,0.01 -0.02,0.01 h -0.03 l -0.03,0.01 -0.02,0.01 h -0.03 l -0.03,0.01 h -0.04 l -0.03,0.01 h -0.03 -0.04 l -0.04,0.01 h -0.04 -0.04 -0.04 -0.04 -0.05 l -0.04,0.01 h -0.05 -0.05 -0.05 -0.05 c -3.1,-3.19 -7.47,-3.19 -9.07,-3.19 v -1.55 c 1,0 3.94,0 6.52,1.3 v -25.81 c 0,-1.8 -0.14,-2.39 -4.63,-2.39 h -1.59 v -1.55 c 1.75,0.16 6.08,0.16 8.06,0.16 2,0 6.33,0 8.08,-0.16 v 1.55 h -1.59 c -4.49,0 -4.64,0.54 -4.64,2.39 z"
           inkscape:connector-curvature="0"
           style="fill:#ff7f00;stroke-width:0;stroke:none;stroke-opacity:1;fill-opacity:1" /></g>    </g>
    <g
       id="g1251"
       transform="translate(150.70001,106.05717)">
      <g
         word-spacing="normal"
         letter-spacing="normal"
         font-size-adjust="none"
         font-stretch="normal"
         font-weight="normal"
         font-variant="normal"
         font-style="normal"
         stroke-miterlimit="10.433"
         xml:space="preserve"
         transform="matrix(0.40821429,0,0,-0.40821429,-71.4375,254)"
         id="g1249"
         style="font-style:normal;font-variant:normal;font-weight:normal;font-stretch:normal;letter-spacing:normal;word-spacing:normal;text-anchor:start;fill:none;fill-opacity:1;fill-rule:evenodd;stroke:#000000;stroke-linecap:butt;stroke-linejoin:miter;stroke-miterlimit:10.43299961;stroke-dasharray:none;stroke-dashoffset:0;stroke-opacity:1"><path
           id="path1241"
           d="m 487.16,435 0.1,0.37 0.05,0.19 0.06,0.18 0.06,0.17 0.07,0.17 0.07,0.17 0.08,0.16 0.08,0.16 0.1,0.16 0.09,0.15 0.11,0.14 0.11,0.14 0.13,0.14 0.13,0.12 0.14,0.13 0.15,0.12 0.17,0.11 0.17,0.11 0.19,0.1 0.19,0.09 0.21,0.09 0.23,0.08 0.23,0.08 0.26,0.07 0.26,0.06 0.28,0.06 0.3,0.04 0.31,0.05 0.33,0.03 0.35,0.03 0.18,0.01 h 0.19 c 0.25,0 0.84,0.05 0.84,1 0,0.05 0,0.55 -0.64,0.55 -1.64,0 -3.39,-0.16 -5.08,-0.16 -1.7,0 -3.55,0.16 -5.19,0.16 -0.29,0 -0.89,0 -0.89,-1 0,-0.55 0.5,-0.55 0.89,-0.55 2.85,-0.04 3.39,-1.09 3.39,-2.18 0,-0.16 -0.11,-0.91 -0.15,-1.05 l -4.49,-17.8 c -1.68,-6.67 -7.42,-11 -12.4,-11 -3.38,0 -6.08,2.19 -6.08,6.47 0,0.11 0,1.7 0.55,3.89 l 4.84,19.38 c 0.44,1.79 0.55,2.29 4.19,2.29 1.28,0 1.68,0 1.68,1 0,0.55 -0.54,0.55 -0.7,0.55 -1.39,0 -4.98,-0.16 -6.37,-0.16 -1.44,0 -4.99,0.16 -6.43,0.16 -0.4,0 -0.95,0 -0.95,-1 0,-0.55 0.45,-0.55 1.41,-0.55 0.09,0 1.04,0 1.89,-0.09 0.89,-0.11 1.34,-0.16 1.34,-0.8 0,-0.31 -0.55,-2.39 -0.84,-3.54 l -1.11,-4.38 c -0.44,-1.95 -2.83,-11.36 -3.03,-12.31 -0.35,-1.39 -0.35,-2.14 -0.35,-2.89 0,-6.08 4.53,-9.56 9.77,-9.56 6.26,0 12.45,5.62 14.09,12.2 z"
           inkscape:connector-curvature="0"
           style="fill:#000000;stroke-width:0" /><path
           id="path1243"
           d="m 543.03,422.5 h 0.14 0.14 0.15 l 0.07,0.01 h 0.07 l 0.08,0.01 0.07,0.01 0.07,0.01 0.07,0.01 0.07,0.01 0.06,0.02 0.07,0.02 0.06,0.02 0.06,0.02 0.06,0.03 0.06,0.03 0.05,0.04 0.05,0.03 0.05,0.05 0.04,0.04 0.04,0.05 0.02,0.03 0.01,0.03 0.02,0.02 0.02,0.03 0.01,0.03 0.01,0.04 0.02,0.03 0.01,0.04 0.01,0.03 v 0.04 l 0.01,0.04 0.01,0.04 v 0.04 l 0.01,0.04 v 0.04 0.05 c 0,1 -0.95,1 -1.64,1 h -29.85 c -0.7,0 -1.64,0 -1.64,-1 0,-0.98 0.94,-0.98 1.69,-0.98 z"
           inkscape:connector-curvature="0"
           style="fill:#000000;stroke-width:0" /><path
           id="path1245"
           d="m 543.08,412.82 h 0.06 0.07 l 0.14,0.01 h 0.13 0.07 l 0.07,0.01 0.07,0.01 h 0.07 l 0.07,0.01 0.07,0.02 0.07,0.01 0.06,0.02 0.06,0.02 0.07,0.02 0.06,0.02 0.05,0.03 0.06,0.03 0.05,0.04 0.05,0.04 0.05,0.04 0.04,0.05 0.02,0.02 0.02,0.03 0.02,0.02 0.01,0.03 0.02,0.03 0.02,0.03 0.01,0.03 0.01,0.03 0.02,0.04 0.01,0.03 0.01,0.04 v 0.04 l 0.01,0.04 0.01,0.04 v 0.04 l 0.01,0.04 v 0.05 0.04 c 0,1 -0.95,1 -1.69,1 h -29.75 c -0.75,0 -1.69,0 -1.69,-1 0,-1 0.94,-1 1.64,-1 z"
           inkscape:connector-curvature="0"
           style="fill:#000000;stroke-width:0" /><path
           id="path1247"
           d="m 584.4,422.14 -0.01,0.74 -0.01,0.75 -0.02,0.75 -0.03,0.74 -0.04,0.75 -0.06,0.74 -0.08,0.74 -0.1,0.73 -0.11,0.73 -0.14,0.73 -0.16,0.72 -0.19,0.72 -0.22,0.72 -0.24,0.7 -0.28,0.7 -0.15,0.35 -0.16,0.34 c -2.28,4.8 -6.38,5.6 -8.47,5.6 -2.98,0 -6.63,-1.3 -8.67,-5.94 -1.6,-3.44 -1.85,-7.33 -1.85,-11.31 0,-3.74 0.21,-8.22 2.25,-12 2.14,-4.03 5.79,-5.03 8.22,-5.03 v 1.09 c -1.93,0 -4.89,1.25 -5.78,6.03 -0.55,2.98 -0.55,7.56 -0.55,10.52 0,3.18 0,6.46 0.41,9.15 0.94,5.94 4.67,6.38 5.92,6.38 1.64,0 4.94,-0.89 5.88,-5.83 0.5,-2.78 0.5,-6.58 0.5,-9.7 0,-3.75 0,-7.13 -0.55,-10.32 -0.75,-4.73 -3.59,-6.23 -5.83,-6.23 v 0 -1.09 c 2.69,0 6.47,1.04 8.67,5.78 1.6,3.43 1.85,7.31 1.85,11.25 z"
           inkscape:connector-curvature="0"
           style="fill:#000000;stroke-width:0" /></g>    </g>
    <g
       id="g1310"
       transform="translate(200.12735,148.41787)">
      <g
         word-spacing="normal"
         letter-spacing="normal"
         font-size-adjust="none"
         font-stretch="normal"
         font-weight="normal"
         font-variant="normal"
         font-style="normal"
         stroke-miterlimit="10.433"
         xml:space="preserve"
         transform="matrix(0.40821429,0,0,-0.40821429,-71.4375,254)"
         id="g1308"
         style="font-style:normal;font-variant:normal;font-weight:normal;font-stretch:normal;letter-spacing:normal;word-spacing:normal;text-anchor:start;fill:none;fill-opacity:1;fill-rule:evenodd;stroke:#000000;stroke-linecap:butt;stroke-linejoin:miter;stroke-miterlimit:10.43299961;stroke-dasharray:none;stroke-dashoffset:0;stroke-opacity:1"><path
           id="path1306"
           d="m 472.16,421.25 0.03,0.13 0.04,0.15 0.04,0.16 0.04,0.18 0.06,0.19 0.06,0.21 0.06,0.22 0.07,0.22 0.08,0.23 0.09,0.24 0.1,0.25 0.1,0.24 0.11,0.25 0.12,0.25 0.13,0.25 0.14,0.25 0.15,0.24 0.15,0.24 0.17,0.23 0.18,0.22 0.18,0.22 0.2,0.2 0.21,0.19 0.22,0.18 0.23,0.16 0.25,0.14 0.12,0.07 0.13,0.06 0.14,0.05 0.13,0.05 0.14,0.05 0.14,0.04 0.15,0.03 0.15,0.03 0.15,0.02 0.16,0.02 0.16,0.01 h 0.16 c 0.25,0 1.44,0 2.48,-0.64 -1.39,-0.25 -2.39,-1.5 -2.39,-2.69 0,-0.79 0.55,-1.75 1.89,-1.75 1.1,0 2.69,0.89 2.69,2.89 0,2.6 -2.94,3.28 -4.63,3.28 -2.89,0 -4.64,-2.64 -5.23,-3.78 -1.25,3.28 -3.94,3.78 -5.37,3.78 -5.19,0 -8.04,-6.42 -8.04,-7.67 0,-0.5 0.5,-0.5 0.61,-0.5 0.39,0 0.55,0.11 0.64,0.55 1.69,5.28 4.99,6.53 6.68,6.53 0.95,0 2.68,-0.44 2.68,-3.33 0,-1.54 -0.84,-4.89 -2.68,-11.86 -0.8,-3.09 -2.54,-5.18 -4.74,-5.18 -0.3,0 -1.44,0 -2.48,0.65 1.25,0.24 2.34,1.28 2.34,2.69 0,1.34 -1.09,1.73 -1.84,1.73 -1.5,0 -2.75,-1.29 -2.75,-2.89 0,-2.28 2.5,-3.28 4.68,-3.28 3.3,0 5.08,3.49 5.24,3.78 0.59,-1.84 2.39,-3.78 5.37,-3.78 5.14,0 7.99,6.42 7.99,7.67 0,0.5 -0.45,0.5 -0.61,0.5 -0.44,0 -0.55,-0.2 -0.64,-0.54 -1.64,-5.33 -5.03,-6.53 -6.63,-6.53 -1.95,0 -2.75,1.59 -2.75,3.29 0,1.1 0.3,2.19 0.86,4.38 z"
           inkscape:connector-curvature="0"
           style="fill:#000000;stroke-width:0" /></g>    </g>
    <g
       id="g1369"
       transform="translate(62.412185,-52.293986)">
      <g
         word-spacing="normal"
         letter-spacing="normal"
         font-size-adjust="none"
         font-stretch="normal"
         font-weight="normal"
         font-variant="normal"
         font-style="normal"
         stroke-miterlimit="10.433"
         xml:space="preserve"
         transform="matrix(0.40821429,0,0,-0.40821429,-71.4375,254)"
         id="g1367"
         style="font-style:normal;font-variant:normal;font-weight:normal;font-stretch:normal;letter-spacing:normal;word-spacing:normal;text-anchor:start;fill:none;fill-opacity:1;fill-rule:evenodd;stroke:#000000;stroke-linecap:butt;stroke-linejoin:miter;stroke-miterlimit:10.43299961;stroke-dasharray:none;stroke-dashoffset:0;stroke-opacity:1"><path
           id="path1365"
           d="m 465.79,426.12 h 4.68 c 0.99,0 1.49,0 1.49,1 0,0.55 -0.5,0.55 -1.39,0.55 h -4.39 c 1.79,7.08 2.04,8.08 2.04,8.37 0,0.85 -0.59,1.35 -1.43,1.35 -0.16,0 -1.55,-0.05 -2,-1.8 l -1.94,-7.92 h -4.69 c -1,0 -1.5,0 -1.5,-0.94 0,-0.61 0.41,-0.61 1.41,-0.61 h 4.37 c -3.58,-14.14 -3.78,-14.98 -3.78,-15.89 0,-2.69 1.89,-4.58 4.58,-4.58 5.08,0 7.92,7.27 7.92,7.67 0,0.5 -0.39,0.5 -0.59,0.5 -0.46,0 -0.5,-0.15 -0.75,-0.7 -2.14,-5.17 -4.78,-6.37 -6.47,-6.37 -1.05,0 -1.55,0.65 -1.55,2.29 0,1.19 0.09,1.55 0.3,2.39 z"
           inkscape:connector-curvature="0"
           style="fill:#000000;stroke-width:0" /></g>    </g>
  </g>
</svg>
